<?xml version="1.0" encoding="utf-8"?>
<!-- Generator: Adobe Illustrator 18.1.1, SVG Export Plug-In . SVG Version: 6.00 Build 0)  -->
<svg version="1.1" id="Laag_1" xmlns="http://www.w3.org/2000/svg" xmlns:xlink="http://www.w3.org/1999/xlink" x="0px" y="0px"
	 viewBox="0 343 612 106" enable-background="new 0 343 612 106" xml:space="preserve">
<path d="M75.9,407.1l-34.7-11v16.8c0,8.1,15.6,14.6,34.7,14.6s34.7-6.5,34.7-14.6v-16.8L75.9,407.1z"/>
<polygon points="150.8,381 75.9,404.6 1.1,381 75.9,357.5 "/>
<g>
	<polygon fill="#6C1D5F" points="28,389.5 42.2,393.9 84.6,380.6 70.3,376.1 	"/>
	<polygon fill="#6C1D5F" points="42.2,436.2 33.9,428.3 28,431.7 28,389.5 42.2,393.9 	"/>
</g>
<g>
	<g>
		<path fill="#6C1D5F" d="M256.7,389.7h-15.4c1-3.5,4.1-5.8,7.5-5.8C252.8,383.9,255.6,386,256.7,389.7 M241.1,395h22.7
			c0-0.5,0-1,0-1.4c0-3.7-0.8-6.8-2.7-9.3c-3-4-7.5-6.4-12.3-6.4c-3.9,0-7.6,1.7-10.5,4.7c-2.7,2.8-4,6.3-4,10.3
			c0,3.7,1.6,7.6,4.2,10.4c2.9,2.9,6.4,4.3,10.6,4.3c6.3,0,11.2-3.5,13.6-9.6h-7.1c-1.3,2.3-3.9,3.5-6.8,3.5
			C244.5,401.5,241.5,399,241.1,395"/>
		<path fill="#6C1D5F" d="M274,393.1c0-4.8,3.5-8.4,8.1-8.4c4.6,0,8.2,3.9,8.2,8.3c0,4.7-3.5,8.3-8.6,8.3
			C277.7,401.3,274,397.7,274,393.1 M273.8,381v-11.3h-6.5v37.4h6.5v-2.3c2.7,2.1,5.4,3,8.8,3c3.6,0,6.8-1.2,9.3-3.3
			c3.4-2.9,5.3-7.1,5.3-11.6c0-4.1-1.7-8.2-4.8-11c-2.7-2.5-6-3.7-9.8-3.7C279.1,378.1,276.3,379,273.8,381"/>
		<path fill="#6C1D5F" d="M301.7,378.9h6.3v28.2h-6.3V378.9z M301.7,369.7h6.3v6.3h-6.3V369.7z"/>
		<path fill="#6C1D5F" d="M318.9,392.6c0-4.6,3.6-8.1,8.1-8.1c4.1,0,8,3.6,8,8.4c0,4.3-3.7,8.1-7.8,8.1
			C322.6,401.1,318.9,397.6,318.9,392.6 M335.7,407.1h6.3v-28.2h-6.3v3.4c-1.9-2.8-4.8-4.1-8.9-4.1c-4.2,0-7.6,1.3-10.5,4.3
			c-2.7,2.8-4,6.4-4,10.4c0,8.4,6.3,14.8,14.6,14.8c4.3,0,7.2-1.2,8.8-4.1V407.1z"/>
	</g>
	<polygon fill="#6C1D5F" points="176.7,419.4 193.9,419.4 212.5,400.8 231.1,419.4 248.5,419.4 221.2,392.1 248.7,364.6 
		231.3,364.6 212.5,383.5 193.8,364.6 176.5,364.6 203.8,392.1 	"/>
</g>
<path d="M383.2,378.9v16.9c0,2.9,0.1,5.7-1.7,8.1c-1.9,2.5-5.2,3.7-8.4,3.7c-3.3,0-6.5-1.2-8.4-3.7c-1.8-2.4-1.7-5.2-1.7-8.1v-16.9
	h2.8v15.9c0,5.4,0.6,10.3,7.4,10.3c6.8,0,7.4-4.8,7.4-10.3v-15.9H383.2z"/>
<path d="M396.8,383.2h0.1c1.7-3.1,4.7-4.9,8.3-4.9c7.2,0,9.3,4.5,9.3,11.7v17h-2.8v-16.9c0-5.1-0.6-9.2-6.8-9.2
	c-7.1,0-8.2,6.6-8.2,12.3v13.9H394v-28.2h2.8L396.8,383.2L396.8,383.2z"/>
<rect x="426" y="378.9" width="2.8" height="28.1"/>
<rect x="426" y="370.9" width="2.8" height="2.8"/>
<polygon points="449.7,402.2 459.5,378.9 462.4,378.9 449.5,408.5 436.6,378.9 439.4,378.9 "/>
<path d="M469.1,393.2c-0.2,7.1,4.7,11.8,11.2,11.8c4.3,0,8-2.7,9.9-6.4l2.3,1.3c-2.5,4.8-7.1,7.6-12.7,7.6
	c-8.3,0-13.6-6.8-13.6-14.7c0-7.8,5.4-14.6,13.6-14.6c8.6,0,13.6,6.9,13.5,15C493.3,393.2,469.1,393.2,469.1,393.2z M490.8,390.7
	c-0.7-5.2-4.9-9.8-10.7-9.8c-5.7,0-10.5,4.5-11,9.8H490.8z"/>
<path d="M505.1,382.5h0.1c1.1-2.5,3.1-4.2,6.2-4.2c1.1,0,2.1,0.2,3,0.7l-1.4,2.4c-0.7-0.4-1.2-0.6-1.9-0.6c-6.2,0-5.8,7.7-5.8,11.8
	V407h-2.8v-28.1h2.8v3.6H505.1z"/>
<path d="M532.9,384.1c-1-1.9-2.8-3.1-4.9-3.1c-2.4,0-4.8,1.9-4.8,4.3c0,6.8,13.8,3.5,13.8,13.6c0,5.2-4,8.8-9,8.8
	c-4.7,0-8.6-2.9-9.6-7.5l2.7-0.8c1.1,3.4,3.3,5.7,7,5.7c3.5,0,6.4-2.8,6.4-6.4c0-3.5-2.7-4.6-5.4-5.5c-3.9-1.4-8.2-3-8.2-7.8
	c0-4.2,3.6-7.1,7.7-7.1c2.9,0,6,1.9,7.2,4.5L532.9,384.1z"/>
<rect x="546" y="378.9" width="2.8" height="28.1"/>
<rect x="546" y="370.9" width="2.8" height="2.8"/>
<polygon points="563.5,407 560.7,407 560.7,381.4 557.7,381.4 557.7,378.9 560.7,378.9 560.7,368.9 563.5,368.9 563.5,378.9 
	568.5,378.9 568.5,381.4 563.5,381.4 "/>
<polygon points="573.3,378.9 576.2,378.9 588.2,404.3 599,378.9 601.7,378.9 582.9,423.5 580,423.5 586.8,407.6 "/>
</svg>
